<?xml version="1.0"?>
<svg version="1.1" id="圖層_1" xmlns="http://www.w3.org/2000/svg" x="0" y="0" viewBox="0 0 100 100" xml:space="preserve"><path d="M86.048 47.174c-3.639-1.369-5.137-2.268-5.137-3.681 0-1.2.899-2.398 3.682-2.398 1.528 0 2.783.242 3.795.544 1.328.396 2.713-.427 3.057-1.769.341-1.332-.469-2.668-1.799-3.018-1.06-.279-2.323-.482-3.855-.551v-1.669a2.097 2.097 0 0 0-4.194 0V36.6c-4.581.899-7.236 3.852-7.236 7.62 0 4.152 3.125 6.292 7.706 7.834 3.168 1.071 4.538 2.099 4.538 3.725 0 1.713-1.669 2.654-4.109 2.654-1.67 0-3.247-.324-4.63-.795-1.359-.463-2.829.285-3.186 1.676l-.052.201a2.472 2.472 0 0 0 1.612 2.966c1.489.488 3.298.837 5.141.919v1.97c0 1.158.939 2.097 2.097 2.097h.001a2.097 2.097 0 0 0 2.097-2.097v-2.269c4.922-.856 7.62-4.109 7.62-7.92.001-3.854-2.054-6.208-7.148-8.007z" fill="#333"/><path d="M55.281 49.346l12.929-6.544c.216-.095.248-.22.248-.312a.29.29 0 0 0-.187-.284l-12.989-6.573v5.031H35.793v3.652h19.488v5.03z" fill="#666"/><path d="M48.403 50.654l-12.929 6.544c-.216.095-.249.22-.249.312 0 .093.033.218.188.284l12.989 6.573v-5.031h19.489v-3.653H48.403v-5.029z" fill="#666"/><path d="M27.982 49.989c-.643-.346-.915-.663-2.115-.952 1.118-.358 1.166-.81 1.848-1.359.682-.548 1.205-1.18 1.567-1.895a4.954 4.954 0 0 0 .544-2.267c0-1.096-.343-2.103-1.028-3.02-.685-.917-1.664-1.621-2.937-2.111a9.003 9.003 0 0 0-1.355-.388v-4.65h-4v4.303h-3v-4.303h-4v4.303H6.803v3.34h1.011c.674 0 1.13.058 1.369.173.239.116.407.271.505.467.098.196.147.652.147 1.367l.031 13.464c0 .704-.05 1.157-.148 1.358a.998.998 0 0 1-.51.467c-.241.11-.702.164-1.383.164H6.804v3.34h6.702v3.555h4V61.79h2.863l.137-.001v3.556h4v-3.888a11.9 11.9 0 0 0 1.747-.514c1.513-.565 2.684-1.387 3.512-2.466.827-1.079 1.242-2.258 1.242-3.539 0-1.073-.272-2.045-.816-2.916a5.637 5.637 0 0 0-2.209-2.033zm-11.809-8.446h2.811c.694 0 1.162.017 1.521.051.49.046.776.124 1.144.234.637.19 1.124.511 1.461.96.337.45.505.992.505 1.627a2.6 2.6 0 0 1-.533 1.618c-.355.467-.885.817-1.589 1.047-.358.117-.622.205-.988.262-.353.056-.799.084-1.521.084h-2.811v-5.883zm7.355 14.918c-.506.6-1.121.995-1.843 1.185-.497.131-.729.216-1.18.257a8.553 8.553 0 0 1-.792.029h-1.889c-.118 0-.218-.002-.319-.004-.438-.01-.723-.039-.839-.091a.575.575 0 0 1-.306-.337c-.049-.127-.08-.559-.092-1.298v-5.227H19.62c.355 0 .641.008.885.023.765.047 1.09.166 1.633.358.716.254 1.253.629 1.611 1.125.358.496.537 1.102.537 1.817.001.842-.252 1.563-.758 2.163z" fill="#333"/><metadata xmlns:d="https://loading.io/stock/"><d:name>currency exchange</d:name><d:tags>currency exchange,euro,usd,dollar,transfer</d:tags><d:license>by</d:license><d:slug>qg7tbm</d:slug></metadata></svg>